<score-partwise version="3.1">
	<part-list>
		<score-part id="P1">
			<part-name>Piano</part-name>
			<part-abbreviation>Pno.</part-abbreviation>
			<score-instrument id="P1-I1">
				<instrument-name>Piano</instrument-name>
			</score-instrument>
			<midi-device id="P1-I1" port="1" />
			<midi-instrument id="P1-I1">
				<midi-channel>1</midi-channel>
				<midi-program>1</midi-program>
				<volume>78.7402</volume>
				<pan>0</pan>
			</midi-instrument>
		</score-part>
		<score-part id="C1">
			<part-name>&#37628;&#29748;</part-name>
			<part-abbreviation>Pno.</part-abbreviation>
			<score-instrument id="C1-I1">
				<instrument-name>&#37628;&#29748;</instrument-name>
			</score-instrument>
			<midi-device id="C1-I1" port="1" />
			<midi-instrument id="C1-I1">
				<midi-channel>2</midi-channel>
				<midi-program>1</midi-program>
				<volume>55</volume>
				<pan>0</pan>
			</midi-instrument>
		</score-part>
	</part-list>
	<part id="P1">
		<measure number="1" width="287.44">
			<print>
				<system-layout>
					<system-margins>
						<left-margin>0.00</left-margin>
						<right-margin>0.00</right-margin>
					</system-margins>
					<top-system-distance>195.00</top-system-distance>
				</system-layout>
			</print>
			<attributes>
				<divisions>4</divisions>
				<key>
					<fifths>0</fifths>
				</key>
				<time>
					<beats>4</beats>
					<beat-type>4</beat-type>
				</time>
				<clef>
					<sign>G</sign>
					<line>2</line>
				</clef>
			</attributes>
			<note default-x="69.27" default-y="-45.00">
				<pitch>
					<step>D</step>
					<octave>4</octave>
				</pitch>
				<duration>2</duration>
				<voice>1</voice>
				<type>eighth</type>
				<stem>up</stem>
				<beam number="1">begin</beam>
				<lyric default-x="6.58" default-y="-49.10" number="1" relative-y="-30.00">
					<syllabic>single</syllabic>
					<text>&#36629;</text>
				</lyric>
			</note>
			<note default-x="99.35" default-y="-20.00">
				<pitch>
					<step>B</step>
					<octave>4</octave>
				</pitch>
				<duration>2</duration>
				<voice>1</voice>
				<type>eighth</type>
				<stem>up</stem>
				<beam number="1">continue</beam>
				<lyric default-x="6.58" default-y="-49.10" number="1" relative-y="-30.00">
					<syllabic>single</syllabic>
					<text>&#36629;</text>
				</lyric>
			</note>
			<note default-x="129.43" default-y="-25.00">
				<pitch>
					<step>A</step>
					<octave>4</octave>
				</pitch>
				<duration>2</duration>
				<voice>1</voice>
				<type>eighth</type>
				<stem>up</stem>
				<beam number="1">end</beam>
				<lyric default-x="6.58" default-y="-49.10" number="1" relative-y="-30.00">
					<syllabic>single</syllabic>
					<text>&#30340;</text>
				</lyric>
			</note>
			<note default-x="159.51" default-y="-20.00">
				<pitch>
					<step>B</step>
					<octave>4</octave>
				</pitch>
				<duration>4</duration>
				<voice>1</voice>
				<type>quarter</type>
				<stem>down</stem>
				<lyric default-x="6.58" default-y="-49.10" number="1" relative-y="-30.00">
					<syllabic>single</syllabic>
					<text>&#22799;</text>
				</lyric>
			</note>
			<note default-x="207.64" default-y="-20.00">
				<pitch>
					<step>B</step>
					<octave>4</octave>
				</pitch>
				<duration>4</duration>
				<voice>1</voice>
				<type>quarter</type>
				<stem>down</stem>
				<lyric default-x="6.58" default-y="-49.10" number="1" relative-y="-30.00">
					<syllabic>single</syllabic>
					<text>&#22825;</text>
				</lyric>
			</note>
			<note>
				<rest />
				<duration>2</duration>
				<voice>1</voice>
				<type>eighth</type>
			</note>
		</measure>
		<measure number="2" width="271.73">
			<note default-x="14.02" default-y="-40.00">
				<pitch>
					<step>E</step>
					<octave>4</octave>
				</pitch>
				<duration>2</duration>
				<voice>1</voice>
				<type>eighth</type>
				<stem>up</stem>
				<beam number="1">begin</beam>
				<lyric default-x="6.58" default-y="-49.10" number="1" relative-y="-30.00">
					<syllabic>single</syllabic>
					<text>&#36629;</text>
				</lyric>
			</note>
			<note default-x="47.72" default-y="-20.00">
				<pitch>
					<step>B</step>
					<octave>4</octave>
				</pitch>
				<duration>2</duration>
				<voice>1</voice>
				<type>eighth</type>
				<stem>up</stem>
				<beam number="1">continue</beam>
				<lyric default-x="6.58" default-y="-49.10" number="1" relative-y="-30.00">
					<syllabic>single</syllabic>
					<text>&#36629;</text>
				</lyric>
			</note>
			<note default-x="81.42" default-y="-25.00">
				<pitch>
					<step>A</step>
					<octave>4</octave>
				</pitch>
				<duration>2</duration>
				<voice>1</voice>
				<type>eighth</type>
				<stem>up</stem>
				<beam number="1">continue</beam>
				<lyric default-x="6.58" default-y="-49.10" number="1" relative-y="-30.00">
					<syllabic>single</syllabic>
					<text>&#30340;</text>
				</lyric>
			</note>
			<note default-x="115.12" default-y="-20.00">
				<pitch>
					<step>B</step>
					<octave>4</octave>
				</pitch>
				<duration>2</duration>
				<voice>1</voice>
				<type>eighth</type>
				<stem>up</stem>
				<beam number="1">end</beam>
				<lyric default-x="6.58" default-y="-49.10" number="1" relative-y="-30.00">
					<syllabic>single</syllabic>
					<text>&#24460;</text>
				</lyric>
			</note>
			<note default-x="148.81" default-y="-25.00">
				<pitch>
					<step>A</step>
					<octave>4</octave>
				</pitch>
				<duration>2</duration>
				<voice>1</voice>
				<type>eighth</type>
				<stem>up</stem>
				<beam number="1">begin</beam>
				<lyric default-x="6.58" default-y="-49.10" number="1" relative-y="-30.00">
					<syllabic>single</syllabic>
					<text>&#23665;</text>
				</lyric>
			</note>
			<note default-x="182.51" default-y="-30.00">
				<pitch>
					<step>G</step>
					<octave>4</octave>
				</pitch>
				<duration>2</duration>
				<voice>1</voice>
				<type>eighth</type>
				<stem>up</stem>
				<beam number="1">end</beam>
				<lyric default-x="6.58" default-y="-49.10" number="1" relative-y="-30.00">
					<syllabic>single</syllabic>
					<text>&#33609;</text>
				</lyric>
			</note>
			<note default-x="216.21" default-y="-20.00">
				<pitch>
					<step>B</step>
					<octave>4</octave>
				</pitch>
				<duration>4</duration>
				<voice>1</voice>
				<type>quarter</type>
				<stem>down</stem>
				<lyric default-x="6.58" default-y="-49.10" number="1" relative-y="-30.00">
					<syllabic>single</syllabic>
					<text>&#21407;</text>
				</lyric>
			</note>
		</measure>
		<measure number="3" width="233.43">
			<note>
				<rest />
				<duration>2</duration>
				<voice>1</voice>
				<type>eighth</type>
			</note>
			<note default-x="40.98" default-y="-20.00">
				<pitch>
					<step>B</step>
					<octave>4</octave>
				</pitch>
				<duration>2</duration>
				<voice>1</voice>
				<type>eighth</type>
				<stem>up</stem>
				<beam number="1">begin</beam>
				<lyric default-x="6.58" default-y="-49.10" number="1" relative-y="-30.00">
					<syllabic>single</syllabic>
					<text>&#33853;</text>
				</lyric>
			</note>
			<note default-x="71.77" default-y="-25.00">
				<pitch>
					<step>A</step>
					<octave>4</octave>
				</pitch>
				<duration>2</duration>
				<voice>1</voice>
				<type>eighth</type>
				<stem>up</stem>
				<beam number="1">continue</beam>
				<lyric default-x="6.58" default-y="-49.10" number="1" relative-y="-30.00">
					<syllabic>single</syllabic>
					<text>&#19979;</text>
				</lyric>
			</note>
			<note default-x="102.55" default-y="-30.00">
				<pitch>
					<step>G</step>
					<octave>4</octave>
				</pitch>
				<duration>2</duration>
				<voice>1</voice>
				<type>eighth</type>
				<stem>up</stem>
				<beam number="1">end</beam>
				<lyric default-x="6.58" default-y="-49.10" number="1" relative-y="-30.00">
					<syllabic>single</syllabic>
					<text>&#30340;</text>
				</lyric>
			</note>
			<note default-x="133.33" default-y="-20.00">
				<pitch>
					<step>B</step>
					<octave>4</octave>
				</pitch>
				<duration>4</duration>
				<voice>1</voice>
				<type>quarter</type>
				<stem>down</stem>
				<lyric default-x="6.58" default-y="-49.10" number="1" relative-y="-30.00">
					<syllabic>single</syllabic>
					<text>&#30219;</text>
				</lyric>
			</note>
			<note default-x="182.58" default-y="-20.00">
				<pitch>
					<step>B</step>
					<octave>4</octave>
				</pitch>
				<duration>4</duration>
				<voice>1</voice>
				<type>quarter</type>
				<stem>down</stem>
				<lyric default-x="6.58" default-y="-49.10" number="1" relative-y="-30.00">
					<syllabic>single</syllabic>
					<text>&#30322;</text>
				</lyric>
			</note>
		</measure>
		<measure number="4" width="284.55">
			<note>
				<rest />
				<duration>2</duration>
				<voice>1</voice>
				<type>eighth</type>
			</note>
			<note default-x="44.29" default-y="-25.00">
				<pitch>
					<step>A</step>
					<octave>4</octave>
				</pitch>
				<duration>2</duration>
				<voice>1</voice>
				<type>eighth</type>
				<stem>up</stem>
				<beam number="1">begin</beam>
				<lyric default-x="6.58" default-y="-49.10" number="1" relative-y="-30.00">
					<syllabic>single</syllabic>
					<text>&#36986;</text>
				</lyric>
			</note>
			<note default-x="78.39" default-y="-20.00">
				<pitch>
					<step>B</step>
					<octave>4</octave>
				</pitch>
				<duration>2</duration>
				<voice>1</voice>
				<type>eighth</type>
				<stem>up</stem>
				<beam number="1">continue</beam>
				<lyric default-x="6.58" default-y="-49.10" number="1" relative-y="-30.00">
					<syllabic>single</syllabic>
					<text>&#22833;</text>
				</lyric>
			</note>
			<note default-x="112.48" default-y="-25.00">
				<pitch>
					<step>A</step>
					<octave>4</octave>
				</pitch>
				<duration>2</duration>
				<voice>1</voice>
				<type>eighth</type>
				<stem>up</stem>
				<beam number="1">end</beam>
				<lyric default-x="6.58" default-y="-49.10" number="1" relative-y="-30.00">
					<syllabic>single</syllabic>
					<text>&#30340;</text>
				</lyric>
			</note>
			<note default-x="146.58" default-y="-25.00">
				<pitch>
					<step>A</step>
					<octave>4</octave>
				</pitch>
				<duration>2</duration>
				<voice>1</voice>
				<type>eighth</type>
				<stem>up</stem>
				<beam number="1">begin</beam>
				<lyric default-x="6.58" default-y="-49.10" number="1" relative-y="-30.00">
					<syllabic>single</syllabic>
					<text>&#27599;</text>
				</lyric>
			</note>
			<note default-x="180.67" default-y="-25.00">
				<pitch>
					<step>A</step>
					<octave>4</octave>
				</pitch>
				<duration>2</duration>
				<voice>1</voice>
				<type>eighth</type>
				<stem>up</stem>
				<beam number="1">continue</beam>
				<lyric default-x="6.58" default-y="-49.10" number="1" relative-y="-30.00">
					<syllabic>single</syllabic>
					<text>&#27573;</text>
				</lyric>
			</note>
			<note default-x="214.77" default-y="-15.00">
				<pitch>
					<step>C</step>
					<octave>5</octave>
				</pitch>
				<duration>2</duration>
				<voice>1</voice>
				<type>eighth</type>
				<stem>up</stem>
				<beam number="1">continue</beam>
				<lyric default-x="6.58" default-y="-49.10" number="1" relative-y="-30.00">
					<syllabic>single</syllabic>
					<text>&#27506;</text>
				</lyric>
			</note>
			<note default-x="248.86" default-y="-30.00">
				<pitch>
					<step>G</step>
					<octave>4</octave>
				</pitch>
				<duration>2</duration>
				<tie type="start" />
				<voice>1</voice>
				<type>eighth</type>
				<stem>up</stem>
				<beam number="1">end</beam>
				<notations>
					<tied type="start" />
				</notations>
				<lyric default-x="6.58" default-y="-49.10" number="1" relative-y="-30.00">
					<syllabic>single</syllabic>
					<text>&#26376;</text>
				</lyric>
			</note>
		</measure>
		<measure number="5" width="278.52">
			<print new-system="yes">
				<system-layout>
					<system-margins>
						<left-margin>0.00</left-margin>
						<right-margin>0.00</right-margin>
					</system-margins>
					<system-distance>132.67</system-distance>
				</system-layout>
			</print>
			<note default-x="58.17" default-y="-30.00">
				<pitch>
					<step>G</step>
					<octave>4</octave>
				</pitch>
				<duration>2</duration>
				<tie type="stop" />
				<voice>1</voice>
				<type>eighth</type>
				<stem>up</stem>
				<notations>
					<tied type="stop" />
				</notations>
			</note>
			<note>
				<rest />
				<duration>2</duration>
				<voice>1</voice>
				<type>eighth</type>
			</note>
			<note default-x="121.11" default-y="-35.00">
				<pitch>
					<step>F</step>
					<octave>4</octave>
				</pitch>
				<duration>2</duration>
				<voice>1</voice>
				<type>eighth</type>
				<stem>up</stem>
				<beam number="1">begin</beam>
				<lyric default-x="6.58" default-y="-48.30" number="1" relative-y="-30.00">
					<syllabic>single</syllabic>
					<text>&#20320;</text>
				</lyric>
			</note>
			<note default-x="152.58" default-y="-15.00">
				<pitch>
					<step>C</step>
					<octave>5</octave>
				</pitch>
				<duration>2</duration>
				<voice>1</voice>
				<type>eighth</type>
				<stem>up</stem>
				<beam number="1">end</beam>
				<lyric default-x="6.58" default-y="-48.30" number="1" relative-y="-30.00">
					<syllabic>single</syllabic>
					<text>&#35498;</text>
				</lyric>
			</note>
			<note default-x="184.05" default-y="-25.00">
				<pitch>
					<step>A</step>
					<octave>4</octave>
				</pitch>
				<duration>2</duration>
				<voice>1</voice>
				<type>eighth</type>
				<stem>up</stem>
				<lyric default-x="6.58" default-y="-48.30" number="1" relative-y="-30.00">
					<syllabic>single</syllabic>
					<text>&#25105;</text>
				</lyric>
			</note>
			<note default-x="215.52" default-y="-20.00">
				<pitch>
					<step>B</step>
					<octave>4</octave>
				</pitch>
				<duration>6</duration>
				<tie type="start" />
				<voice>1</voice>
				<type>quarter</type>
				<dot />
				<stem>down</stem>
				<notations>
					<tied type="start" />
				</notations>
				<lyric default-x="6.58" default-y="-48.30" number="1" relative-y="-30.00">
					<syllabic>single</syllabic>
					<text>&#19981;</text>
				</lyric>
			</note>
		</measure>
		<measure number="6" width="233.16">
			<note default-x="10.00" default-y="-20.00">
				<pitch>
					<step>B</step>
					<octave>4</octave>
				</pitch>
				<duration>2</duration>
				<tie type="stop" />
				<voice>1</voice>
				<type>eighth</type>
				<stem>down</stem>
				<beam number="1">begin</beam>
				<notations>
					<tied type="stop" />
				</notations>
			</note>
			<note default-x="36.80" default-y="-10.00">
				<pitch>
					<step>D</step>
					<octave>5</octave>
				</pitch>
				<duration>2</duration>
				<tie type="start" />
				<voice>1</voice>
				<type>eighth</type>
				<stem>down</stem>
				<beam number="1">continue</beam>
				<notations>
					<tied type="start" />
				</notations>
				<lyric default-x="6.58" default-y="-48.30" number="1" relative-y="-30.00">
					<syllabic>single</syllabic>
					<text>&#26371;</text>
				</lyric>
			</note>
			<note default-x="63.61" default-y="-10.00">
				<pitch>
					<step>D</step>
					<octave>5</octave>
				</pitch>
				<duration>2</duration>
				<tie type="stop" />
				<voice>1</voice>
				<type>eighth</type>
				<stem>down</stem>
				<beam number="1">end</beam>
				<notations>
					<tied type="stop" />
				</notations>
			</note>
			<note default-x="90.41" default-y="-25.00">
				<pitch>
					<step>A</step>
					<octave>4</octave>
				</pitch>
				<duration>4</duration>
				<voice>1</voice>
				<type>quarter</type>
				<stem>up</stem>
				<lyric default-x="6.58" default-y="-48.30" number="1" relative-y="-30.00">
					<syllabic>single</syllabic>
					<text>&#25026;</text>
				</lyric>
			</note>
			<note>
				<rest />
				<duration>2</duration>
				<voice>1</voice>
				<type>eighth</type>
			</note>
			<note>
				<rest />
				<duration>2</duration>
				<voice>1</voice>
				<type>eighth</type>
			</note>
			<note default-x="180.88" default-y="-30.00">
				<pitch>
					<step>G</step>
					<octave>4</octave>
				</pitch>
				<duration>1</duration>
				<voice>1</voice>
				<type>16th</type>
				<stem>up</stem>
				<beam number="1">begin</beam>
				<beam number="2">begin</beam>
				<lyric default-x="6.58" default-y="-48.30" number="1" relative-y="-30.00">
					<syllabic>single</syllabic>
					<text>&#20320;</text>
				</lyric>
			</note>
			<note default-x="204.38" default-y="-25.00">
				<pitch>
					<step>A</step>
					<octave>4</octave>
				</pitch>
				<duration>1</duration>
				<tie type="start" />
				<voice>1</voice>
				<type>16th</type>
				<stem>up</stem>
				<beam number="1">end</beam>
				<beam number="2">end</beam>
				<notations>
					<tied type="start" />
				</notations>
				<lyric default-x="6.58" default-y="-48.30" number="1" relative-y="-30.00">
					<syllabic>single</syllabic>
					<text>&#35498;</text>
				</lyric>
			</note>
		</measure>
		<measure number="7" width="305.93">
			<note default-x="10.00" default-y="-25.00">
				<pitch>
					<step>A</step>
					<octave>4</octave>
				</pitch>
				<duration>1</duration>
				<tie type="stop" />
				<voice>1</voice>
				<type>16th</type>
				<stem>up</stem>
				<beam number="1">begin</beam>
				<beam number="2">begin</beam>
				<notations>
					<tied type="stop" />
				</notations>
			</note>
			<note default-x="31.79" default-y="-20.00">
				<pitch>
					<step>B</step>
					<octave>4</octave>
				</pitch>
				<duration>1</duration>
				<tie type="start" />
				<voice>1</voice>
				<type>16th</type>
				<stem>up</stem>
				<beam number="1">continue</beam>
				<beam number="2">continue</beam>
				<notations>
					<tied type="start" />
				</notations>
				<lyric default-x="6.58" default-y="-48.30" number="1" relative-y="-30.00">
					<syllabic>single</syllabic>
					<text>&#26178;</text>
				</lyric>
			</note>
			<note default-x="53.59" default-y="-20.00">
				<pitch>
					<step>B</step>
					<octave>4</octave>
				</pitch>
				<duration>1</duration>
				<tie type="stop" />
				<voice>1</voice>
				<type>16th</type>
				<stem>up</stem>
				<beam number="1">continue</beam>
				<beam number="2">continue</beam>
				<notations>
					<tied type="stop" />
				</notations>
			</note>
			<note default-x="75.38" default-y="-20.00">
				<pitch>
					<step>B</step>
					<octave>4</octave>
				</pitch>
				<duration>1</duration>
				<tie type="start" />
				<voice>1</voice>
				<type>16th</type>
				<stem>up</stem>
				<beam number="1">end</beam>
				<beam number="2">end</beam>
				<notations>
					<tied type="start" />
				</notations>
				<lyric default-x="6.58" default-y="-48.30" number="1" relative-y="-30.00">
					<syllabic>single</syllabic>
					<text>&#20809;</text>
				</lyric>
			</note>
			<note default-x="97.18" default-y="-20.00">
				<pitch>
					<step>B</step>
					<octave>4</octave>
				</pitch>
				<duration>1</duration>
				<tie type="stop" />
				<voice>1</voice>
				<type>16th</type>
				<stem>up</stem>
				<beam number="1">begin</beam>
				<beam number="2">forward hook</beam>
				<notations>
					<tied type="stop" />
				</notations>
			</note>
			<note default-x="118.97" default-y="-20.00">
				<pitch>
					<step>B</step>
					<octave>4</octave>
				</pitch>
				<duration>2</duration>
				<voice>1</voice>
				<type>eighth</type>
				<stem>up</stem>
				<beam number="1">continue</beam>
				<lyric default-x="6.58" default-y="-48.30" number="1" relative-y="-30.00">
					<syllabic>single</syllabic>
					<text>&#32066;</text>
				</lyric>
			</note>
			<note default-x="153.84" default-y="-25.00">
				<pitch>
					<step>A</step>
					<octave>4</octave>
				</pitch>
				<duration>2</duration>
				<voice>1</voice>
				<type>eighth</type>
				<stem>up</stem>
				<beam number="1">continue</beam>
				<lyric default-x="6.58" default-y="-48.30" number="1" relative-y="-30.00">
					<syllabic>single</syllabic>
					<text>&#31350;</text>
				</lyric>
			</note>
			<note default-x="188.71" default-y="-20.00">
				<pitch>
					<step>B</step>
					<octave>4</octave>
				</pitch>
				<duration>2</duration>
				<voice>1</voice>
				<type>eighth</type>
				<stem>up</stem>
				<beam number="1">end</beam>
				<lyric default-x="6.58" default-y="-48.30" number="1" relative-y="-30.00">
					<syllabic>single</syllabic>
					<text>&#26371;</text>
				</lyric>
			</note>
			<note default-x="223.58" default-y="-10.00">
				<pitch>
					<step>D</step>
					<octave>5</octave>
				</pitch>
				<duration>4</duration>
				<voice>1</voice>
				<type>quarter</type>
				<stem>down</stem>
				<lyric default-x="6.58" default-y="-48.30" number="1" relative-y="-30.00">
					<syllabic>single</syllabic>
					<text>&#21040;</text>
				</lyric>
			</note>
			<note default-x="271.53" default-y="-25.00">
				<pitch>
					<step>A</step>
					<octave>4</octave>
				</pitch>
				<duration>1</duration>
				<tie type="start" />
				<voice>1</voice>
				<type>16th</type>
				<stem>up</stem>
				<notations>
					<tied type="start" />
				</notations>
				<lyric default-x="6.58" default-y="-48.30" number="1" relative-y="-30.00">
					<syllabic>single</syllabic>
					<text>&#38957;</text>
				</lyric>
			</note>
		</measure>
		<measure number="8" width="259.56">
			<note default-x="10.00" default-y="-25.00">
				<pitch>
					<step>A</step>
					<octave>4</octave>
				</pitch>
				<duration>3</duration>
				<tie type="stop" />
				<voice>1</voice>
				<type>eighth</type>
				<dot />
				<stem>up</stem>
				<notations>
					<tied type="stop" />
				</notations>
			</note>
			<note>
				<rest />
				<duration>1</duration>
				<voice>1</voice>
				<type>16th</type>
			</note>
			<note>
				<rest />
				<duration>2</duration>
				<voice>1</voice>
				<type>eighth</type>
			</note>
			<note>
				<rest />
				<duration>2</duration>
				<voice>1</voice>
				<type>eighth</type>
			</note>
			<note default-x="131.52" default-y="-15.00">
				<pitch>
					<step>C</step>
					<octave>5</octave>
				</pitch>
				<duration>2</duration>
				<voice>1</voice>
				<type>eighth</type>
				<stem>down</stem>
				<beam number="1">begin</beam>
				<lyric default-x="6.58" default-y="-48.30" number="1" relative-y="-30.00">
					<syllabic>single</syllabic>
					<text>&#25105;</text>
				</lyric>
			</note>
			<note default-x="163.13" default-y="-10.00">
				<pitch>
					<step>D</step>
					<octave>5</octave>
				</pitch>
				<duration>2</duration>
				<voice>1</voice>
				<type>eighth</type>
				<stem>down</stem>
				<beam number="1">continue</beam>
				<lyric default-x="6.58" default-y="-48.30" number="1" relative-y="-30.00">
					<syllabic>single</syllabic>
					<text>&#20497;</text>
				</lyric>
			</note>
			<note default-x="194.74" default-y="-15.00">
				<pitch>
					<step>C</step>
					<octave>5</octave>
				</pitch>
				<duration>2</duration>
				<voice>1</voice>
				<type>eighth</type>
				<stem>down</stem>
				<beam number="1">continue</beam>
				<lyric default-x="6.58" default-y="-48.30" number="1" relative-y="-30.00">
					<syllabic>single</syllabic>
					<text>&#29992;</text>
				</lyric>
			</note>
			<note default-x="226.35" default-y="-5.00">
				<pitch>
					<step>E</step>
					<octave>5</octave>
				</pitch>
				<duration>2</duration>
				<tie type="start" />
				<voice>1</voice>
				<type>eighth</type>
				<stem>down</stem>
				<beam number="1">end</beam>
				<notations>
					<tied type="start" />
				</notations>
				<lyric default-x="6.58" default-y="-48.30" number="1" relative-y="-30.00">
					<syllabic>single</syllabic>
					<text>&#34796;</text>
				</lyric>
			</note>
		</measure>
		<measure number="9" width="312.13">
			<print new-system="yes">
				<system-layout>
					<system-margins>
						<left-margin>0.00</left-margin>
						<right-margin>0.00</right-margin>
					</system-margins>
					<system-distance>132.67</system-distance>
				</system-layout>
			</print>
			<note default-x="58.17" default-y="-5.00">
				<pitch>
					<step>E</step>
					<octave>5</octave>
				</pitch>
				<duration>2</duration>
				<tie type="stop" />
				<voice>1</voice>
				<type>eighth</type>
				<stem>down</stem>
				<notations>
					<tied type="stop" />
				</notations>
			</note>
			<note default-x="96.70" default-y="-5.00">
				<pitch>
					<step>E</step>
					<octave>5</octave>
				</pitch>
				<duration>6</duration>
				<voice>1</voice>
				<type>quarter</type>
				<dot />
				<stem>down</stem>
				<lyric default-x="6.58" default-y="-41.20" number="1" relative-y="-30.00">
					<syllabic>single</syllabic>
					<text>&#32882;</text>
				</lyric>
			</note>
			<note default-x="171.85" default-y="-5.00">
				<pitch>
					<step>E</step>
					<octave>5</octave>
				</pitch>
				<duration>2</duration>
				<voice>1</voice>
				<type>eighth</type>
				<stem>down</stem>
				<beam number="1">begin</beam>
				<lyric default-x="6.58" default-y="-41.20" number="1" relative-y="-30.00">
					<syllabic>single</syllabic>
					<text>&#21435;</text>
				</lyric>
			</note>
			<note default-x="210.37" default-y="-10.00">
				<pitch>
					<step>D</step>
					<octave>5</octave>
				</pitch>
				<duration>2</duration>
				<voice>1</voice>
				<type>eighth</type>
				<stem>down</stem>
				<beam number="1">end</beam>
				<lyric default-x="6.58" default-y="-41.20" number="1" relative-y="-30.00">
					<syllabic>single</syllabic>
					<text>&#29730;</text>
				</lyric>
			</note>
			<note default-x="248.89" default-y="-5.00">
				<pitch>
					<step>E</step>
					<octave>5</octave>
				</pitch>
				<duration>4</duration>
				<voice>1</voice>
				<type>quarter</type>
				<stem>down</stem>
				<lyric default-x="6.58" default-y="-41.20" number="1" relative-y="-30.00">
					<syllabic>single</syllabic>
					<text>&#30952;</text>
				</lyric>
			</note>
		</measure>
		<measure number="10" width="320.49">
			<note>
				<rest />
				<duration>2</duration>
				<voice>1</voice>
				<type>eighth</type>
			</note>
			<note default-x="48.79" default-y="0.00">
				<pitch>
					<step>F</step>
					<octave>5</octave>
				</pitch>
				<duration>2</duration>
				<voice>1</voice>
				<type>eighth</type>
				<stem>down</stem>
				<beam number="1">begin</beam>
				<lyric default-x="6.58" default-y="-41.20" number="1" relative-y="-30.00">
					<syllabic>single</syllabic>
					<text>&#19968;</text>
				</lyric>
			</note>
			<note default-x="87.37" default-y="5.00">
				<pitch>
					<step>G</step>
					<octave>5</octave>
				</pitch>
				<duration>2</duration>
				<voice>1</voice>
				<type>eighth</type>
				<stem>down</stem>
				<beam number="1">continue</beam>
				<lyric default-x="6.58" default-y="-41.20" number="1" relative-y="-30.00">
					<syllabic>single</syllabic>
					<text>&#20491;</text>
				</lyric>
			</note>
			<note default-x="125.96" default-y="10.00">
				<pitch>
					<step>A</step>
					<octave>5</octave>
				</pitch>
				<duration>2</duration>
				<tie type="start" />
				<voice>1</voice>
				<type>eighth</type>
				<stem>down</stem>
				<beam number="1">end</beam>
				<notations>
					<tied type="start" />
				</notations>
				<lyric default-x="6.58" default-y="-41.20" number="1" relative-y="-30.00">
					<syllabic>single</syllabic>
					<text>&#28961;</text>
				</lyric>
			</note>
			<note default-x="164.54" default-y="10.00">
				<pitch>
					<step>A</step>
					<octave>5</octave>
				</pitch>
				<duration>2</duration>
				<tie type="stop" />
				<voice>1</voice>
				<type>eighth</type>
				<stem>down</stem>
				<beam number="1">begin</beam>
				<notations>
					<tied type="stop" />
				</notations>
			</note>
			<note default-x="203.13" default-y="-5.00">
				<pitch>
					<step>E</step>
					<octave>5</octave>
				</pitch>
				<duration>2</duration>
				<tie type="start" />
				<voice>1</voice>
				<type>eighth</type>
				<stem>down</stem>
				<beam number="1">continue</beam>
				<notations>
					<tied type="start" />
				</notations>
				<lyric default-x="6.58" default-y="-41.20" number="1" relative-y="-30.00">
					<syllabic>single</syllabic>
					<text>&#20154;</text>
				</lyric>
			</note>
			<note default-x="241.72" default-y="-5.00">
				<pitch>
					<step>E</step>
					<octave>5</octave>
				</pitch>
				<duration>2</duration>
				<tie type="stop" />
				<voice>1</voice>
				<type>eighth</type>
				<stem>down</stem>
				<beam number="1">continue</beam>
				<notations>
					<tied type="stop" />
				</notations>
			</note>
			<note default-x="280.30" default-y="-5.00">
				<pitch>
					<step>E</step>
					<octave>5</octave>
				</pitch>
				<duration>2</duration>
				<voice>1</voice>
				<type>eighth</type>
				<stem>down</stem>
				<beam number="1">end</beam>
				<lyric default-x="6.58" default-y="-41.20" number="1" relative-y="-30.00">
					<syllabic>single</syllabic>
					<text>&#36208;</text>
				</lyric>
			</note>
		</measure>
		<measure number="11" width="273.45">
			<note default-x="13.82" default-y="5.00">
				<pitch>
					<step>G</step>
					<octave>5</octave>
				</pitch>
				<duration>2</duration>
				<tie type="start" />
				<voice>1</voice>
				<type>eighth</type>
				<stem>down</stem>
				<beam number="1">begin</beam>
				<notations>
					<tied type="start" />
				</notations>
				<lyric default-x="6.58" default-y="-41.20" number="1" relative-y="-30.00">
					<syllabic>single</syllabic>
					<text>&#36942;</text>
				</lyric>
			</note>
			<note default-x="49.66" default-y="5.00">
				<pitch>
					<step>G</step>
					<octave>5</octave>
				</pitch>
				<duration>2</duration>
				<tie type="stop" />
				<voice>1</voice>
				<type>eighth</type>
				<stem>down</stem>
				<beam number="1">continue</beam>
				<notations>
					<tied type="stop" />
				</notations>
			</note>
			<note default-x="85.49" default-y="0.00">
				<pitch>
					<step>F</step>
					<octave>5</octave>
				</pitch>
				<duration>2</duration>
				<voice>1</voice>
				<type>eighth</type>
				<stem>down</stem>
				<beam number="1">continue</beam>
				<lyric default-x="6.58" default-y="-41.20" number="1" relative-y="-30.00">
					<syllabic>single</syllabic>
					<text>&#30340;</text>
				</lyric>
			</note>
			<note default-x="121.33" default-y="-5.00">
				<pitch>
					<step>E</step>
					<octave>5</octave>
				</pitch>
				<duration>2</duration>
				<voice>1</voice>
				<type>eighth</type>
				<stem>down</stem>
				<beam number="1">end</beam>
				<lyric default-x="6.58" default-y="-41.20" number="1" relative-y="-30.00">
					<syllabic>single</syllabic>
					<text>&#21320;</text>
				</lyric>
			</note>
			<note default-x="157.17" default-y="-10.00">
				<pitch>
					<step>D</step>
					<octave>5</octave>
				</pitch>
				<duration>4</duration>
				<voice>1</voice>
				<type>quarter</type>
				<stem>down</stem>
				<lyric default-x="6.58" default-y="-41.20" number="1" relative-y="-30.00">
					<syllabic>single</syllabic>
					<text>&#24460;</text>
				</lyric>
			</note>
			<note>
				<rest />
				<duration>4</duration>
				<voice>1</voice>
				<type>quarter</type>
			</note>
		</measure>
		<measure number="12" width="171.10">
			<note>
				<rest />
				<duration>16</duration>
				<voice>1</voice>
			</note>
		</measure>
		<measure number="13" width="295.37">
			<print new-system="yes">
				<system-layout>
					<system-margins>
						<left-margin>0.00</left-margin>
						<right-margin>0.00</right-margin>
					</system-margins>
					<system-distance>132.67</system-distance>
				</system-layout>
			</print>
			<note>
				<rest />
				<duration>16</duration>
				<voice>1</voice>
			</note>
		</measure>
		<measure number="14" width="260.60">
			<note>
				<rest />
				<duration>16</duration>
				<voice>1</voice>
			</note>
		</measure>
		<measure number="15" width="260.60">
			<note>
				<rest />
				<duration>16</duration>
				<voice>1</voice>
			</note>
		</measure>
		<measure number="16" width="260.60">
			<note>
				<rest />
				<duration>16</duration>
				<voice>1</voice>
			</note>
		</measure>
		<measure number="17" width="295.37">
			<print new-system="yes">
				<system-layout>
					<system-margins>
						<left-margin>0.00</left-margin>
						<right-margin>0.00</right-margin>
					</system-margins>
					<system-distance>132.67</system-distance>
				</system-layout>
			</print>
			<note>
				<rest />
				<duration>16</duration>
				<voice>1</voice>
			</note>
		</measure>
		<measure number="18" width="260.60">
			<note>
				<rest />
				<duration>16</duration>
				<voice>1</voice>
			</note>
		</measure>
		<measure number="19" width="260.60">
			<note>
				<rest />
				<duration>16</duration>
				<voice>1</voice>
			</note>
		</measure>
		<measure number="20" width="260.60">
			<note>
				<rest />
				<duration>16</duration>
				<voice>1</voice>
			</note>
		</measure>
		<measure number="21" width="295.37">
			<print new-system="yes">
				<system-layout>
					<system-margins>
						<left-margin>0.00</left-margin>
						<right-margin>0.00</right-margin>
					</system-margins>
					<system-distance>132.67</system-distance>
				</system-layout>
			</print>
			<note>
				<rest />
				<duration>16</duration>
				<voice>1</voice>
			</note>
		</measure>
		<measure number="22" width="260.60">
			<note>
				<rest />
				<duration>16</duration>
				<voice>1</voice>
			</note>
		</measure>
		<measure number="23" width="260.60">
			<note>
				<rest />
				<duration>16</duration>
				<voice>1</voice>
			</note>
		</measure>
		<measure number="24" width="260.60">
			<note>
				<rest />
				<duration>16</duration>
				<voice>1</voice>
			</note>
		</measure>
		<measure number="25" width="295.37">
			<print new-system="yes">
				<system-layout>
					<system-margins>
						<left-margin>0.00</left-margin>
						<right-margin>0.00</right-margin>
					</system-margins>
					<system-distance>132.67</system-distance>
				</system-layout>
			</print>
			<note>
				<rest />
				<duration>16</duration>
				<voice>1</voice>
			</note>
		</measure>
		<measure number="26" width="260.60">
			<note>
				<rest />
				<duration>16</duration>
				<voice>1</voice>
			</note>
		</measure>
		<measure number="27" width="260.60">
			<note>
				<rest />
				<duration>16</duration>
				<voice>1</voice>
			</note>
		</measure>
		<measure number="28" width="260.60">
			<note>
				<rest />
				<duration>16</duration>
				<voice>1</voice>
			</note>
		</measure>
		<measure number="29" width="153.47">
			<print new-system="yes">
				<system-layout>
					<system-margins>
						<left-margin>0.00</left-margin>
						<right-margin>567.61</right-margin>
					</system-margins>
					<system-distance>132.67</system-distance>
				</system-layout>
			</print>
			<note>
				<rest />
				<duration>16</duration>
				<voice>1</voice>
			</note>
		</measure>
		<measure number="30" width="118.69">
			<note>
				<rest />
				<duration>16</duration>
				<voice>1</voice>
			</note>
		</measure>
		<measure number="31" width="118.69">
			<note>
				<rest />
				<duration>16</duration>
				<voice>1</voice>
			</note>
		</measure>
		<measure number="32" width="118.69">
			<note>
				<rest />
				<duration>16</duration>
				<voice>1</voice>
			</note>
			<barline location="right">
				<bar-style>light-heavy</bar-style>
			</barline>
		</measure>
	</part>
	<part id="C1">
		<measure number="1">
			<company_type number="0" type="open" />
			<note>
				<pitch>
					<step>G</step>
					<octave>3</octave>
				</pitch>
				<duration>0</duration>
				<type>half</type>
			</note>
			<note>
				<chord />
				<pitch>
					<step>D</step>
					<octave>4</octave>
				</pitch>
				<duration>0</duration>
				<type>half</type>
			</note>
			<note>
				<pitch>
					<step>G</step>
					<octave>3</octave>
				</pitch>
				<duration>0</duration>
				<type>eighth</type>
			</note>
			<note>
				<pitch>
					<step>G</step>
					<octave>3</octave>
				</pitch>
				<duration>0</duration>
				<type>quarter</type>
				<dot />
			</note>
			<note>
				<chord />
				<pitch>
					<step>G</step>
					<octave>4</octave>
				</pitch>
				<duration>0</duration>
				<type>quarter</type>
				<dot />
			</note>
		</measure>
		<measure number="2">
			<company_type number="3" type="run" />
			<note>
				<pitch>
					<step>E</step>
					<octave>3</octave>
				</pitch>
				<duration>0</duration>
				<type>quarter</type>
			</note>
			<note>
				<chord />
				<pitch>
					<step>G</step>
					<octave>3</octave>
				</pitch>
				<duration>0</duration>
				<type>quarter</type>
			</note>
			<note>
				<chord />
				<pitch>
					<step>B</step>
					<octave>3</octave>
				</pitch>
				<duration>0</duration>
				<type>quarter</type>
			</note>
			<note>
				<pitch>
					<step>G</step>
					<octave>3</octave>
				</pitch>
				<duration>0</duration>
				<type>eighth</type>
			</note>
			<note>
				<pitch>
					<step>B</step>
					<octave>3</octave>
				</pitch>
				<duration>0</duration>
				<type>eighth</type>
			</note>
			<note>
				<pitch>
					<step>G</step>
					<octave>3</octave>
				</pitch>
				<duration>0</duration>
				<type>quarter</type>
			</note>
			<note>
				<pitch>
					<step>E</step>
					<octave>3</octave>
				</pitch>
				<duration>0</duration>
				<type>quarter</type>
			</note>
			<note>
				<chord />
				<pitch>
					<step>B</step>
					<octave>3</octave>
				</pitch>
				<duration>0</duration>
				<type>quarter</type>
			</note>
		</measure>
		<measure number="3">
			<company_type number="0" type="run" />
			<note>
				<pitch>
					<step>E</step>
					<octave>3</octave>
				</pitch>
				<duration>0</duration>
				<type>quarter</type>
			</note>
			<note>
				<chord />
				<pitch>
					<step>G</step>
					<octave>3</octave>
				</pitch>
				<duration>0</duration>
				<type>quarter</type>
			</note>
			<note>
				<chord />
				<pitch>
					<step>B</step>
					<octave>3</octave>
				</pitch>
				<duration>0</duration>
				<type>quarter</type>
			</note>
			<note>
				<pitch>
					<step>G</step>
					<octave>3</octave>
				</pitch>
				<duration>0</duration>
				<type>eighth</type>
			</note>
			<note>
				<pitch>
					<step>B</step>
					<octave>3</octave>
				</pitch>
				<duration>0</duration>
				<type>eighth</type>
			</note>
			<note>
				<pitch>
					<step>G</step>
					<octave>3</octave>
				</pitch>
				<duration>0</duration>
				<type>quarter</type>
			</note>
			<note>
				<pitch>
					<step>E</step>
					<octave>3</octave>
				</pitch>
				<duration>0</duration>
				<type>quarter</type>
			</note>
			<note>
				<chord />
				<pitch>
					<step>B</step>
					<octave>3</octave>
				</pitch>
				<duration>0</duration>
				<type>quarter</type>
			</note>
		</measure>
		<measure number="4">
			<company_type number="2" type="run" />
			<note>
				<pitch>
					<step>F</step>
					<octave>3</octave>
				</pitch>
				<duration>0</duration>
				<type>quarter</type>
			</note>
			<note>
				<chord />
				<pitch>
					<step>A</step>
					<octave>3</octave>
				</pitch>
				<duration>0</duration>
				<type>quarter</type>
			</note>
			<note>
				<chord />
				<pitch>
					<step>C</step>
					<octave>4</octave>
				</pitch>
				<duration>0</duration>
				<type>quarter</type>
			</note>
			<note>
				<pitch>
					<step>A</step>
					<octave>3</octave>
				</pitch>
				<duration>0</duration>
				<type>eighth</type>
			</note>
			<note>
				<pitch>
					<step>C</step>
					<octave>4</octave>
				</pitch>
				<duration>0</duration>
				<type>eighth</type>
			</note>
			<note>
				<pitch>
					<step>A</step>
					<octave>3</octave>
				</pitch>
				<duration>0</duration>
				<type>eighth</type>
			</note>
			<note>
				<pitch>
					<step>F</step>
					<octave>3</octave>
				</pitch>
				<duration>0</duration>
				<type>eighth</type>
			</note>
			<note>
				<pitch>
					<step>F</step>
					<octave>3</octave>
				</pitch>
				<duration>0</duration>
				<type>quarter</type>
			</note>
			<note>
				<chord />
				<pitch>
					<step>C</step>
					<octave>4</octave>
				</pitch>
				<duration>0</duration>
				<type>quarter</type>
			</note>
		</measure>
		<measure number="5">
			<company_type number="0" type="run" />
			<note>
				<pitch>
					<step>F</step>
					<octave>3</octave>
				</pitch>
				<duration>0</duration>
				<type>quarter</type>
			</note>
			<note>
				<chord />
				<pitch>
					<step>A</step>
					<octave>3</octave>
				</pitch>
				<duration>0</duration>
				<type>quarter</type>
			</note>
			<note>
				<chord />
				<pitch>
					<step>C</step>
					<octave>4</octave>
				</pitch>
				<duration>0</duration>
				<type>quarter</type>
			</note>
			<note>
				<pitch>
					<step>A</step>
					<octave>3</octave>
				</pitch>
				<duration>0</duration>
				<type>eighth</type>
			</note>
			<note>
				<pitch>
					<step>C</step>
					<octave>4</octave>
				</pitch>
				<duration>0</duration>
				<type>eighth</type>
			</note>
			<note>
				<pitch>
					<step>A</step>
					<octave>3</octave>
				</pitch>
				<duration>0</duration>
				<type>eighth</type>
			</note>
			<note>
				<pitch>
					<step>F</step>
					<octave>3</octave>
				</pitch>
				<duration>0</duration>
				<type>eighth</type>
			</note>
			<note>
				<pitch>
					<step>F</step>
					<octave>3</octave>
				</pitch>
				<duration>0</duration>
				<type>quarter</type>
			</note>
			<note>
				<chord />
				<pitch>
					<step>C</step>
					<octave>4</octave>
				</pitch>
				<duration>0</duration>
				<type>quarter</type>
			</note>
		</measure>
		<measure number="6">
			<company_type number="1" type="run" />
			<note>
				<pitch>
					<step>D</step>
					<octave>3</octave>
				</pitch>
				<duration>0</duration>
				<type>quarter</type>
			</note>
			<note>
				<chord />
				<pitch>
					<step>F</step>
					<octave>3</octave>
				</pitch>
				<duration>0</duration>
				<type>quarter</type>
			</note>
			<note>
				<chord />
				<pitch>
					<step>A</step>
					<octave>3</octave>
				</pitch>
				<duration>0</duration>
				<type>quarter</type>
			</note>
			<note>
				<pitch>
					<step>D</step>
					<octave>3</octave>
				</pitch>
				<duration>0</duration>
				<type>quarter</type>
			</note>
			<note>
				<chord />
				<pitch>
					<step>A</step>
					<octave>3</octave>
				</pitch>
				<duration>0</duration>
				<type>quarter</type>
			</note>
			<note>
				<pitch>
					<step>D</step>
					<octave>3</octave>
				</pitch>
				<duration>0</duration>
				<type>quarter</type>
			</note>
			<note>
				<chord />
				<pitch>
					<step>F</step>
					<octave>3</octave>
				</pitch>
				<duration>0</duration>
				<type>quarter</type>
			</note>
			<note>
				<chord />
				<pitch>
					<step>A</step>
					<octave>3</octave>
				</pitch>
				<duration>0</duration>
				<type>quarter</type>
			</note>
			<note>
				<pitch>
					<step>D</step>
					<octave>3</octave>
				</pitch>
				<duration>0</duration>
				<type>quarter</type>
			</note>
			<note>
				<chord />
				<pitch>
					<step>A</step>
					<octave>3</octave>
				</pitch>
				<duration>0</duration>
				<type>quarter</type>
			</note>
		</measure>
		<measure number="7">
			<company_type number="0" type="run" />
			<note>
				<pitch>
					<step>G</step>
					<octave>3</octave>
				</pitch>
				<duration>0</duration>
				<type>quarter</type>
			</note>
			<note>
				<chord />
				<pitch>
					<step>B</step>
					<octave>3</octave>
				</pitch>
				<duration>0</duration>
				<type>quarter</type>
			</note>
			<note>
				<chord />
				<pitch>
					<step>D</step>
					<octave>4</octave>
				</pitch>
				<duration>0</duration>
				<type>quarter</type>
			</note>
			<note>
				<pitch>
					<step>G</step>
					<octave>3</octave>
				</pitch>
				<duration>0</duration>
				<type>quarter</type>
			</note>
			<note>
				<chord />
				<pitch>
					<step>D</step>
					<octave>4</octave>
				</pitch>
				<duration>0</duration>
				<type>quarter</type>
			</note>
			<note>
				<pitch>
					<step>G</step>
					<octave>3</octave>
				</pitch>
				<duration>0</duration>
				<type>quarter</type>
			</note>
			<note>
				<chord />
				<pitch>
					<step>B</step>
					<octave>3</octave>
				</pitch>
				<duration>0</duration>
				<type>quarter</type>
			</note>
			<note>
				<chord />
				<pitch>
					<step>D</step>
					<octave>4</octave>
				</pitch>
				<duration>0</duration>
				<type>quarter</type>
			</note>
			<note>
				<pitch>
					<step>G</step>
					<octave>3</octave>
				</pitch>
				<duration>0</duration>
				<type>quarter</type>
			</note>
			<note>
				<chord />
				<pitch>
					<step>D</step>
					<octave>4</octave>
				</pitch>
				<duration>0</duration>
				<type>quarter</type>
			</note>
		</measure>
		<measure number="8">
			<company_type number="2" type="run" />
			<note>
				<pitch>
					<step>A</step>
					<octave>3</octave>
				</pitch>
				<duration>0</duration>
				<type>quarter</type>
			</note>
			<note>
				<chord />
				<pitch>
					<step>C</step>
					<octave>4</octave>
				</pitch>
				<duration>0</duration>
				<type>quarter</type>
			</note>
			<note>
				<chord />
				<pitch>
					<step>E</step>
					<octave>4</octave>
				</pitch>
				<duration>0</duration>
				<type>quarter</type>
			</note>
			<note>
				<pitch>
					<step>C</step>
					<octave>4</octave>
				</pitch>
				<duration>0</duration>
				<type>eighth</type>
			</note>
			<note>
				<pitch>
					<step>E</step>
					<octave>4</octave>
				</pitch>
				<duration>0</duration>
				<type>eighth</type>
			</note>
			<note>
				<pitch>
					<step>C</step>
					<octave>4</octave>
				</pitch>
				<duration>0</duration>
				<type>eighth</type>
			</note>
			<note>
				<pitch>
					<step>A</step>
					<octave>3</octave>
				</pitch>
				<duration>0</duration>
				<type>eighth</type>
			</note>
			<note>
				<pitch>
					<step>A</step>
					<octave>3</octave>
				</pitch>
				<duration>0</duration>
				<type>quarter</type>
			</note>
			<note>
				<chord />
				<pitch>
					<step>E</step>
					<octave>4</octave>
				</pitch>
				<duration>0</duration>
				<type>quarter</type>
			</note>
		</measure>
		<measure number="9">
			<company_type number="0" type="run" />
			<note>
				<pitch>
					<step>C</step>
					<octave>4</octave>
				</pitch>
				<duration>0</duration>
				<type>quarter</type>
			</note>
			<note>
				<chord />
				<pitch>
					<step>E</step>
					<octave>4</octave>
				</pitch>
				<duration>0</duration>
				<type>quarter</type>
			</note>
			<note>
				<chord />
				<pitch>
					<step>G</step>
					<octave>4</octave>
				</pitch>
				<duration>0</duration>
				<type>quarter</type>
			</note>
			<note>
				<pitch>
					<step>E</step>
					<octave>4</octave>
				</pitch>
				<duration>0</duration>
				<type>eighth</type>
			</note>
			<note>
				<pitch>
					<step>G</step>
					<octave>4</octave>
				</pitch>
				<duration>0</duration>
				<type>eighth</type>
			</note>
			<note>
				<pitch>
					<step>E</step>
					<octave>4</octave>
				</pitch>
				<duration>0</duration>
				<type>eighth</type>
			</note>
			<note>
				<pitch>
					<step>C</step>
					<octave>4</octave>
				</pitch>
				<duration>0</duration>
				<type>eighth</type>
			</note>
			<note>
				<pitch>
					<step>C</step>
					<octave>4</octave>
				</pitch>
				<duration>0</duration>
				<type>quarter</type>
			</note>
			<note>
				<chord />
				<pitch>
					<step>G</step>
					<octave>4</octave>
				</pitch>
				<duration>0</duration>
				<type>quarter</type>
			</note>
		</measure>
		<measure number="10">
			<company_type number="3" type="run" />
			<note>
				<pitch>
					<step>A</step>
					<octave>4</octave>
				</pitch>
				<duration>0</duration>
				<type>quarter</type>
			</note>
			<note>
				<chord />
				<pitch>
					<step>C</step>
					<octave>5</octave>
				</pitch>
				<duration>0</duration>
				<type>quarter</type>
			</note>
			<note>
				<chord />
				<pitch>
					<step>E</step>
					<octave>5</octave>
				</pitch>
				<duration>0</duration>
				<type>quarter</type>
			</note>
			<note>
				<pitch>
					<step>C</step>
					<octave>5</octave>
				</pitch>
				<duration>0</duration>
				<type>eighth</type>
			</note>
			<note>
				<pitch>
					<step>E</step>
					<octave>5</octave>
				</pitch>
				<duration>0</duration>
				<type>eighth</type>
			</note>
			<note>
				<pitch>
					<step>C</step>
					<octave>5</octave>
				</pitch>
				<duration>0</duration>
				<type>quarter</type>
			</note>
			<note>
				<pitch>
					<step>A</step>
					<octave>4</octave>
				</pitch>
				<duration>0</duration>
				<type>quarter</type>
			</note>
			<note>
				<chord />
				<pitch>
					<step>E</step>
					<octave>5</octave>
				</pitch>
				<duration>0</duration>
				<type>quarter</type>
			</note>
		</measure>
		<measure number="11">
			<company_type number="0" type="end" />
			<note>
				<pitch>
					<step>C</step>
					<octave>4</octave>
				</pitch>
				<duration>0</duration>
				<type>half</type>
			</note>
			<note>
				<chord />
				<pitch>
					<step>E</step>
					<octave>4</octave>
				</pitch>
				<duration>0</duration>
				<type>half</type>
			</note>
			<note>
				<chord />
				<pitch>
					<step>G</step>
					<octave>4</octave>
				</pitch>
				<duration>0</duration>
				<type>half</type>
			</note>
			<note>
				<pitch>
					<step>C</step>
					<octave>4</octave>
				</pitch>
				<duration>0</duration>
				<type>half</type>
			</note>
			<note>
				<chord />
				<pitch>
					<step>G</step>
					<octave>3</octave>
				</pitch>
				<duration>0</duration>
				<type>half</type>
			</note>
			<note>
				<chord />
				<pitch>
					<step>C</step>
					<octave>3</octave>
				</pitch>
				<duration>0</duration>
				<type>half</type>
			</note>
		</measure>
		<measure number="12">
			<note>
				<rest />
				<duration>32</duration>
				<duration>whole</duration>
			</note>
		</measure>
		<measure number="13">
			<note>
				<rest />
				<duration>32</duration>
				<duration>whole</duration>
			</note>
		</measure>
		<measure number="14">
			<note>
				<rest />
				<duration>32</duration>
				<duration>whole</duration>
			</note>
		</measure>
		<measure number="15">
			<note>
				<rest />
				<duration>32</duration>
				<duration>whole</duration>
			</note>
		</measure>
		<measure number="16">
			<note>
				<rest />
				<duration>32</duration>
				<duration>whole</duration>
			</note>
		</measure>
		<measure number="17">
			<note>
				<rest />
				<duration>32</duration>
				<duration>whole</duration>
			</note>
		</measure>
		<measure number="18">
			<note>
				<rest />
				<duration>32</duration>
				<duration>whole</duration>
			</note>
		</measure>
		<measure number="19">
			<note>
				<rest />
				<duration>32</duration>
				<duration>whole</duration>
			</note>
		</measure>
		<measure number="20">
			<note>
				<rest />
				<duration>32</duration>
				<duration>whole</duration>
			</note>
		</measure>
		<measure number="21">
			<note>
				<rest />
				<duration>32</duration>
				<duration>whole</duration>
			</note>
		</measure>
		<measure number="22">
			<note>
				<rest />
				<duration>32</duration>
				<duration>whole</duration>
			</note>
		</measure>
		<measure number="23">
			<note>
				<rest />
				<duration>32</duration>
				<duration>whole</duration>
			</note>
		</measure>
		<measure number="24">
			<note>
				<rest />
				<duration>32</duration>
				<duration>whole</duration>
			</note>
		</measure>
		<measure number="25">
			<note>
				<rest />
				<duration>32</duration>
				<duration>whole</duration>
			</note>
		</measure>
		<measure number="26">
			<note>
				<rest />
				<duration>32</duration>
				<duration>whole</duration>
			</note>
		</measure>
		<measure number="27">
			<note>
				<rest />
				<duration>32</duration>
				<duration>whole</duration>
			</note>
		</measure>
		<measure number="28">
			<note>
				<rest />
				<duration>32</duration>
				<duration>whole</duration>
			</note>
		</measure>
		<measure number="29">
			<note>
				<rest />
				<duration>32</duration>
				<duration>whole</duration>
			</note>
		</measure>
		<measure number="30">
			<note>
				<rest />
				<duration>32</duration>
				<duration>whole</duration>
			</note>
		</measure>
		<measure number="31">
			<note>
				<rest />
				<duration>32</duration>
				<duration>whole</duration>
			</note>
		</measure>
		<measure number="32">
			<note>
				<rest />
				<duration>32</duration>
				<duration>whole</duration>
			</note>
		</measure>
	</part>
</score-partwise>
